<svg xmlns="http://www.w3.org/2000/svg" width="320" height="300"><rect id="backgroundrect" width="100%" height="100%" x="0" y="0" fill="none" stroke="none"/>

 <g style="" class="currentLayer">
  <title>Layer 1</title>
  <g id="svgg" class="">
   <path fill-rule="evenodd" fill="#000000" d="m112.89000967407227,1.5201613159179672 c-3.4370000000000003,0.545 -9.062,1.73 -12.5,2.632 c-3.4370000000000003,0.903 -14.438,3.583 -24.446,5.956 c-10.008,2.372 -19.061,4.531 -20.117,4.796 c-1.912,0.48000000000000004 -1.921,0.454 -1.921,-5.341 c0,-8.912 1.606,-8.409 -26.819,-8.409 c-22.921,0 -24.03,0.06800000000000002 -25.525,1.5630000000000002 c-1.53,1.53 -1.562,2.604 -1.562,51.817 l0,50.254 l1.808,1.6990000000000003 c1.774,1.6660000000000001 2.253,1.6980000000000002 25.391000000000002,1.6990000000000003 c28.274,0 26.707,0.55 26.707,-9.375 c0,-3.438 0.18600000000000003,-6.25 0.41300000000000003,-6.25 c0.22700000000000004,0 2.6,1.105 5.273,2.456 c2.6740000000000004,1.351 7.849,3.529 11.502,4.84 l6.640000000000001,2.384 l32.055,0.29100000000000004 c31.086,0.28200000000000003 32.189,0.24100000000000002 36.467,-1.359 c17.487,-6.543 18.678,-30.341 1.965,-39.271 c-3.12,-1.6680000000000001 -4.327,-1.7770000000000001 -22.245,-2.009 l-18.945,-0.24600000000000002 l0,-3.465 c0,-7.241 -8.933,-6.59 90.504,-6.59 c83.659,0 87.434,0.06100000000000001 88.672,1.428 c1.925,2.128 1.9889999999999999,100.889 0.06600000000000002,102.812 c-2.061,2.061 -2.095,2.061 -90.444,1.8370000000000002 l-85.811,-0.21800000000000003 l-1.494,-1.844 c-1.372,-1.6960000000000002 -1.493,-3.284 -1.493,-19.67 l0,-17.826 l-2.058,-1.6190000000000002 c-2.516,-1.979 -5.03,-2.066 -7.269,-0.252 c-1.6620000000000001,1.347 -1.6840000000000002,1.669 -1.454,21.739 l0.234,20.372 l2.199,3.3200000000000003 c1.521,2.298 3.446,3.901 6.25,5.207 l4.051,1.8860000000000001 l88.672,-0.010000000000000002 c99.77,-0.010000000000000002 92.268,0.44600000000000006 97.538,-5.929 c4.149,-5.017 4.127,-4.682 3.872,-60.061 l-0.23800000000000002,-51.563 l-2.523,-3.633 c-1.7000000000000002,-2.448 -3.853,-4.296 -6.599,-5.664 l-4.076,-2.031 l-40.582,0 l-40.583,0 l-18.444,-13.168 c-32.766,-23.395 -45.792,-27.525 -73.131,-23.185 m29.419,11.787 c9.454,1.957 15.094,4.85 29.463,15.116 l13.775,9.841 l-39.063,0.39000000000000007 c-42.781,0.42800000000000005 -41.144,0.24200000000000002 -45.857,5.204 c-5.015,5.279 -6.652,20.873 -2.616,24.91 l1.9180000000000001,1.9180000000000001 l20.934,0.0020000000000000005 c25.545,0.004000000000000001 28.362,1.067 28.353,10.701 c-0.010000000000000002,9.629 -2.613,10.39 -35.552,10.39 c-34.249,0 -41.277,-1.302 -55.047,-10.202 l-4.711,-3.045 l0,-25.746 c0,-23.838 0.101,-25.776 1.367,-26.166 c4.866,-1.498 59.2,-13.911 63.396,-14.483 c6.122,-0.8360000000000001 16.409,-0.32700000000000007 23.64,1.17 m-99.34,41.363 l0,42.578 l-16.016,0 l-16.016,0 l0,-42.578 l0,-42.578 l16.016,0 l16.016,0 l0,42.578 m124.338,6.445 c-2.492,2.109 -2.834,4.982 -0.8880000000000001,7.456 l1.6630000000000003,2.115 l41.336,0 l41.337,0 l1.905,3.7600000000000002 c2.164,4.27 7.18,9.142 11.098,10.779 l2.648,1.106 l0,16.336 l0,16.335 l-2.88,0.9500000000000001 c-3.646,1.204 -9.88,7.384 -11.239,11.143 l-1.039,2.872 l-53.712,0 l-53.713,0 l-1.478,-3.321 c-1.782,-4.003 -7.447,-9.388 -11.367,-10.805 c-1.844,-0.6670000000000001 -2.853,-1.529 -2.853,-2.4370000000000003 c0,-4.1370000000000005 -5.813,-5.821 -9.02,-2.613 c-4.432,4.432 -1.5870000000000002,14.484 4.101,14.491 c4.751,0.007000000000000002 9.308,4.445 10.138,9.876 c0.9550000000000001,6.243 -4.577,5.746 63.986,5.746 l61.15,0 l1.6190000000000002,-2.058 c0.8910000000000001,-1.1320000000000001 1.621,-2.9779999999999998 1.622,-4.102 c0.007000000000000002,-4.687 5.249,-9.465 10.383000000000001,-9.465 c4.993,0 5.24,-1.2650000000000001 5.24,-26.843 l0,-23.228 l-1.9180000000000001,-1.917 c-1.338,-1.338 -2.783,-1.9180000000000001 -4.78,-1.9180000000000001 c-4.096,0 -8.927,-4.832 -8.927,-8.928 c0,-1.9969999999999999 -0.5800000000000001,-3.441 -1.9180000000000001,-4.779 l-1.9180000000000001,-1.9180000000000001 l-44.48,0 c-41.226,0 -44.598,0.1 -46.096,1.367 m24.88,20.457 c-12.133,3.705 -19.026,15.978 -15.29,27.226 c7.488,22.545 40.255,18.335 41.7,-5.359 c0.8520000000000001,-13.96 -13.469,-25.817 -26.41,-21.867 m8.814,11.278 c11.232,4.786 7.318,20.995 -4.772,19.764 c-10.431000000000001,-1.061 -12.584,-15.524000000000001 -2.936,-19.724 c3.099,-1.3490000000000002 4.616,-1.357 7.708,-0.04000000000000001 m66.968,101.273 c-1.303,1.302 -1.5630000000000002,2.604 -1.5630000000000002,7.813 c0,3.4370000000000003 -0.14800000000000002,6.25 -0.32800000000000007,6.25 c-0.18100000000000002,0 -2.73,-1.212 -5.664,-2.692 c-2.935,-1.48 -8.149000000000001,-3.676 -11.586,-4.88 l-6.25,-2.189 l-37.632,-0.24500000000000002 c-41.566,-0.271 -41.763,-0.253 -47.768,4.494 c-12.133,9.591 -9.961,28.36 4.15,35.858 l3.906,2.075 l27.537,0.233 l27.538,0.232 l1.955,-1.9540000000000002 c2.469,-2.47 2.48,-4.696 0.037000000000000005,-7.14 l-1.9180000000000001,-1.917 l-26.024,0 c-29.119,0 -29.886,-0.13 -32.775,-5.517 c-2.504,-4.668 -1.542,-9.124 2.858,-13.233 l2.091,-1.9540000000000002 l35.679,0 c32.038,0 36.197,0.14500000000000002 40.757,1.4140000000000001 c5.6930000000000005,1.586 18.008,7.3100000000000005 21.289,9.897 l2.148,1.693 l0,25.64 l0,25.64 l-1.909,0.47900000000000004 c-1.05,0.264 -13.266,2.958 -27.148,5.987 c-63.151,13.781 -61.01,14.136 -111.959,-18.528 c-16.757,-10.743 -35.352,-22.654 -41.32,-26.469 c-13.532,-8.648 -16.467,-12.859 -13.427,-19.266 c3.368,-7.098 6.905,-6.934 38.011,1.758 c27.203,7.601 27.373,7.621 30.069,3.505 c3.105,-4.739 0.30400000000000005,-6.894 -14.114,-10.863 c-18.275,-5.03 -25.508,-7.071 -31.64,-8.927 c-19.84,-6.005 -34.319,1.8290000000000002 -34.351,18.587 c-0.020000000000000004,10.596 3.6100000000000003,14.808 23.804,27.621 c7.304,4.634 16.093,10.234 19.531,12.444 c53.92,34.657000000000004 51.406,33.129 59.676,36.26 c15.412,5.832 30.437,5.506 61.027,-1.326 c7.949,-1.776 17.617,-3.887 21.484,-4.692 c3.8680000000000003,-0.805 10.121,-2.188 13.898,-3.073 c3.776,-0.8850000000000001 7.204,-1.609 7.617,-1.609 c0.41300000000000003,0 0.7510000000000001,2.582 0.7510000000000001,5.739 c0,8.813 -1.577,8.324 26.819,8.324 c22.921,0 24.03,-0.06800000000000002 25.525,-1.5630000000000002 c1.53,-1.53 1.562,-2.604 1.562,-51.817 l0,-50.254 l-1.808,-1.6990000000000003 c-2.713,-2.549 -48,-2.6710000000000003 -50.535,-0.136 m40.625,52.344 l0,42.187 l-15.625,0 l-15.625,0 l0,-42.187 l0,-42.188 l15.625,0 l15.625,0 l0,42.188 " id="path0"/>
  </g>
 </g>
</svg>